<?xml version="1.0" encoding="UTF-8" standalone="no"?>
<svg
   version="1.2"
   width="688.06299"
   height="767.47089"
   viewBox="0 0 18205 20306.001"
   preserveAspectRatio="xMidYMid"
   fill-rule="evenodd"
   stroke-width="28.222"
   stroke-linejoin="round"
   xml:space="preserve"
   id="svg179"
   sodipodi:docname="logo_simplified11_outline_scaled.svg"
   inkscape:version="1.2.2 (b0a8486541, 2022-12-01)"
   xmlns:inkscape="http://www.inkscape.org/namespaces/inkscape"
   xmlns:sodipodi="http://sodipodi.sourceforge.net/DTD/sodipodi-0.dtd"
   xmlns="http://www.w3.org/2000/svg"
   xmlns:svg="http://www.w3.org/2000/svg"
   xmlns:ooo="http://xml.openoffice.org/svg/export"><sodipodi:namedview
   id="namedview181"
   pagecolor="#ffffff"
   bordercolor="#000000"
   borderopacity="0.25"
   inkscape:showpageshadow="2"
   inkscape:pageopacity="0.0"
   inkscape:pagecheckerboard="0"
   inkscape:deskcolor="#d1d1d1"
   inkscape:document-units="mm"
   showgrid="false"
   inkscape:zoom="0.7635119"
   inkscape:cx="333.983"
   inkscape:cy="365.4167"
   inkscape:window-width="1920"
   inkscape:window-height="1011"
   inkscape:window-x="0"
   inkscape:window-y="0"
   inkscape:window-maximized="1"
   inkscape:current-layer="svg179" />
 <defs
   class="ClipPathGroup"
   id="defs8">
  <clipPath
   id="presentation_clip_path"
   clipPathUnits="userSpaceOnUse">
   <rect
   x="0"
   y="0"
   width="21000"
   height="28000"
   id="rect2" />
  </clipPath>
  <clipPath
   id="presentation_clip_path_shrink"
   clipPathUnits="userSpaceOnUse">
   <rect
   x="21"
   y="28"
   width="20958"
   height="27944"
   id="rect5" />
  </clipPath>
 </defs>
 <defs
   class="TextShapeIndex"
   id="defs12">
  <g
   ooo:slide="id1"
   ooo:id-list="id3 id4 id5 id6 id7 id8 id9 id10 id11 id12 id13 id14 id15 id16"
   id="g10" />
 </defs>
 <defs
   class="EmbeddedBulletChars"
   id="defs44">
  <g
   id="bullet-char-template-57356"
   transform="matrix(4.8828125e-4,0,0,-4.8828125e-4,0,0)">
   <path
   d="M 580,1141 1163,571 580,0 -4,571 Z"
   id="path14" />
  </g>
  <g
   id="bullet-char-template-57354"
   transform="matrix(4.8828125e-4,0,0,-4.8828125e-4,0,0)">
   <path
   d="M 8,1128 H 1137 V 0 H 8 Z"
   id="path17" />
  </g>
  <g
   id="bullet-char-template-10146"
   transform="matrix(4.8828125e-4,0,0,-4.8828125e-4,0,0)">
   <path
   d="M 174,0 602,739 174,1481 1456,739 Z M 1358,739 309,1346 659,739 Z"
   id="path20" />
  </g>
  <g
   id="bullet-char-template-10132"
   transform="matrix(4.8828125e-4,0,0,-4.8828125e-4,0,0)">
   <path
   d="M 2015,739 1276,0 H 717 l 543,543 H 174 v 393 h 1086 l -543,545 h 557 z"
   id="path23" />
  </g>
  <g
   id="bullet-char-template-10007"
   transform="matrix(4.8828125e-4,0,0,-4.8828125e-4,0,0)">
   <path
   d="m 0,-2 c -7,16 -16,29 -25,39 l 381,530 c -94,256 -141,385 -141,387 0,25 13,38 40,38 9,0 21,-2 34,-5 21,4 42,12 65,25 l 27,-13 111,-251 280,301 64,-25 24,25 c 21,-10 41,-24 62,-43 C 886,937 835,863 770,784 769,783 710,716 594,584 L 774,223 c 0,-27 -21,-55 -63,-84 l 16,-20 C 717,90 699,76 672,76 641,76 570,178 457,381 L 164,-76 c -22,-34 -53,-51 -92,-51 -42,0 -63,17 -64,51 -7,9 -10,24 -10,44 0,9 1,19 2,30 z"
   id="path26" />
  </g>
  <g
   id="bullet-char-template-10004"
   transform="matrix(4.8828125e-4,0,0,-4.8828125e-4,0,0)">
   <path
   d="M 285,-33 C 182,-33 111,30 74,156 52,228 41,333 41,471 c 0,78 14,145 41,201 34,71 87,106 158,106 53,0 88,-31 106,-94 l 23,-176 c 8,-64 28,-97 59,-98 l 735,706 c 11,11 33,17 66,17 42,0 63,-15 63,-46 V 965 c 0,-36 -10,-64 -30,-84 L 442,47 C 390,-6 338,-33 285,-33 Z"
   id="path29" />
  </g>
  <g
   id="bullet-char-template-9679"
   transform="matrix(4.8828125e-4,0,0,-4.8828125e-4,0,0)">
   <path
   d="M 813,0 C 632,0 489,54 383,161 276,268 223,411 223,592 c 0,181 53,324 160,431 106,107 249,161 430,161 179,0 323,-54 432,-161 108,-107 162,-251 162,-431 0,-180 -54,-324 -162,-431 C 1136,54 992,0 813,0 Z"
   id="path32" />
  </g>
  <g
   id="bullet-char-template-8226"
   transform="matrix(4.8828125e-4,0,0,-4.8828125e-4,0,0)">
   <path
   d="m 346,457 c -73,0 -137,26 -191,78 -54,51 -81,114 -81,188 0,73 27,136 81,188 54,52 118,78 191,78 73,0 134,-26 185,-79 51,-51 77,-114 77,-187 0,-75 -25,-137 -76,-188 -50,-52 -112,-78 -186,-78 z"
   id="path35" />
  </g>
  <g
   id="bullet-char-template-8211"
   transform="matrix(4.8828125e-4,0,0,-4.8828125e-4,0,0)">
   <path
   d="M -4,459 H 1135 V 606 H -4 Z"
   id="path38" />
  </g>
  <g
   id="bullet-char-template-61548"
   transform="matrix(4.8828125e-4,0,0,-4.8828125e-4,0,0)">
   <path
   d="m 173,740 c 0,163 58,303 173,419 116,115 255,173 419,173 163,0 302,-58 418,-173 116,-116 174,-256 174,-419 0,-163 -58,-303 -174,-418 C 1067,206 928,148 765,148 601,148 462,206 346,322 231,437 173,577 173,740 Z"
   id="path41" />
  </g>
 </defs>
 <g
   id="g49"
   transform="translate(-1693,-4325)">
  <g
   id="id2"
   class="Master_Slide">
   <g
   id="bg-id2"
   class="Background" />
   <g
   id="bo-id2"
   class="BackgroundObjects" />
  </g>
 </g>
 <g
   class="SlideGroup"
   id="g177"
   transform="translate(-1693,-4325)">
  <g
   id="g175">
   <g
   id="container-id1">
    <g
   id="id1"
   class="Slide"
   clip-path="url(#presentation_clip_path)">
     <g
   class="Page"
   id="g171">
      <g
   class="com.sun.star.drawing.CustomShape"
   id="g58">
       <g
   id="id3">
        <rect
   class="BoundingBox"
   stroke="none"
   fill="none"
   x="6457"
   y="18839"
   width="8679"
   height="2823"
   id="rect51" />
        <path
   fill="#ffffff"
   stroke="none"
   d="M 10796,21132 H 6986 v -1764 h 7620 v 1764 z"
   id="path53" />
        <path
   fill="none"
   stroke="#000000"
   stroke-width="1058"
   stroke-linejoin="round"
   d="M 10796,21132 H 6986 v -1764 h 7620 v 1764 z"
   id="path55" />
       </g>
      </g>
      <g
   class="com.sun.star.drawing.ClosedBezierShape"
   id="g67">
       <g
   id="id4">
        <rect
   class="BoundingBox"
   stroke="none"
   fill="none"
   x="1693"
   y="12529"
   width="6171"
   height="6760"
   id="rect60" />
        <path
   fill="#ffffff"
   stroke="none"
   d="m 5565,18759 c -22,-257 -67,-511 -133,-759 -100,-370 -247,-728 -441,-1063 -193,-335 -429,-642 -701,-913 -271,-272 -578,-508 -913,-701 -335,-194 -693,-342 -1064,-441 -30,-8 -60,-16 -90,-23 v -1801 c 184,32 367,72 547,120 519,139 1020,346 1489,617 469,271 899,601 1279,981 380,380 710,810 981,1279 271,469 478,970 617,1489 106,396 173,803 198,1215 z"
   id="path62" />
        <path
   fill="none"
   stroke="#000000"
   stroke-width="1058"
   stroke-linejoin="round"
   d="m 5565,18759 c -22,-257 -67,-511 -133,-759 -100,-370 -247,-728 -441,-1063 -193,-335 -429,-642 -701,-913 -271,-272 -578,-508 -913,-701 -335,-194 -693,-342 -1064,-441 -30,-8 -60,-16 -90,-23 v -1801 c 184,32 367,72 547,120 519,139 1020,346 1489,617 469,271 899,601 1279,981 380,380 710,810 981,1279 271,469 478,970 617,1489 106,396 173,803 198,1215 z"
   id="path64" />
       </g>
      </g>
      <g
   class="com.sun.star.drawing.ClosedBezierShape"
   id="g76">
       <g
   id="id5">
        <rect
   class="BoundingBox"
   stroke="none"
   fill="none"
   x="1694"
   y="4360"
   width="14119"
   height="14929"
   id="rect69" />
        <path
   fill="#ffffff"
   stroke="none"
   d="m 13518,18759 c -16,-1015 -158,-2020 -419,-2993 -278,-1038 -691,-2040 -1233,-2978 -542,-939 -1203,-1798 -1962,-2558 C 9144,9471 8285,8810 7346,8268 6408,7726 5406,7313 4368,7035 3667,6847 2949,6721 2223,6659 V 4889 c 881,66 1752,214 2602,442 1186,317 2331,790 3403,1409 1073,620 2055,1375 2923,2243 868,868 1623,1850 2242,2923 620,1072 1092,2217 1410,3403 301,1121 463,2280 480,3450 z"
   id="path71" />
        <path
   fill="none"
   stroke="#000000"
   stroke-width="1058"
   stroke-linejoin="round"
   d="m 13518,18759 c -16,-1015 -158,-2020 -419,-2993 -278,-1038 -691,-2040 -1233,-2978 -542,-939 -1203,-1798 -1962,-2558 C 9144,9471 8285,8810 7346,8268 6408,7726 5406,7313 4368,7035 3667,6847 2949,6721 2223,6659 V 4889 c 881,66 1752,214 2602,442 1186,317 2331,790 3403,1409 1073,620 2055,1375 2923,2243 868,868 1623,1850 2242,2923 620,1072 1092,2217 1410,3403 301,1121 463,2280 480,3450 z"
   id="path73" />
       </g>
      </g>
      <g
   class="com.sun.star.drawing.ClosedBezierShape"
   id="g91">
       <g
   id="id6">
        <rect
   class="BoundingBox"
   stroke="none"
   fill="none"
   x="5034"
   y="4325"
   width="14864"
   height="14965"
   id="rect78" />
        <path
   fill="#ffffff"
   stroke="none"
   d="m 11844,8455 c -241,-241 -491,-474 -749,-698 483,-370 992,-709 1522,-1016 1073,-619 2218,-1092 3404,-1409 1088,-292 2212,-453 3347,-478 v 1764 c -980,25 -1951,165 -2891,417 -1038,278 -2039,692 -2978,1234 -391,226 -769,472 -1131,738 -170,-188 -344,-373 -524,-552 z m -623,624 c 155,155 306,314 454,476 -254,216 -498,441 -733,676 -169,169 -334,344 -493,522 -117,-127 -237,-252 -359,-375 -294,-294 -603,-572 -926,-834 172,-191 349,-378 531,-560 228,-228 463,-448 707,-660 283,240 556,492 819,755 z m -1755,1923 c 143,142 281,288 415,438 -328,428 -630,878 -901,1348 -542,939 -956,1941 -1234,2978 -46,172 -88,345 -127,519 -99,-229 -211,-452 -337,-669 -265,-459 -583,-883 -947,-1263 293,-846 666,-1665 1117,-2447 341,-591 724,-1154 1144,-1687 304,246 595,507 870,783 z m -2948,5055 c 252,436 444,901 573,1383 115,429 180,872 193,1319 H 5563 c 17,-1157 176,-2303 470,-3413 179,223 341,461 485,711 z"
   id="path80" />
        <path
   fill="none"
   stroke="#000000"
   stroke-width="1058"
   stroke-linejoin="round"
   d="m 11844,8455 c -241,-241 -491,-474 -749,-698 483,-370 992,-709 1522,-1016 1073,-619 2218,-1092 3404,-1409 1088,-292 2212,-453 3347,-478 v 1764 c -980,25 -1951,165 -2891,417 -1038,278 -2039,692 -2978,1234 -391,226 -769,472 -1131,738 -170,-188 -344,-373 -524,-552 z"
   id="path82" />
        <path
   fill="none"
   stroke="#000000"
   stroke-width="1058"
   stroke-linejoin="round"
   d="m 11221,9079 c 155,155 306,314 454,476 -254,216 -498,441 -733,676 -169,169 -334,344 -493,522 -117,-127 -237,-252 -359,-375 -294,-294 -603,-572 -926,-834 172,-191 349,-378 531,-560 228,-228 463,-448 707,-660 283,240 556,492 819,755 z"
   id="path84" />
        <path
   fill="none"
   stroke="#000000"
   stroke-width="1058"
   stroke-linejoin="round"
   d="m 9466,11002 c 143,142 281,288 415,438 -328,428 -630,878 -901,1348 -542,939 -956,1941 -1234,2978 -46,172 -88,345 -127,519 -99,-229 -211,-452 -337,-669 -265,-459 -583,-883 -947,-1263 293,-846 666,-1665 1117,-2447 341,-591 724,-1154 1144,-1687 304,246 595,507 870,783 z"
   id="path86" />
        <path
   fill="none"
   stroke="#000000"
   stroke-width="1058"
   stroke-linejoin="round"
   d="m 6518,16057 c 252,436 444,901 573,1383 115,429 180,872 193,1319 H 5563 c 17,-1157 176,-2303 470,-3413 179,223 341,461 485,711 z"
   id="path88" />
       </g>
      </g>
      <g
   class="com.sun.star.drawing.ClosedBezierShape"
   id="g102">
       <g
   id="id7">
        <rect
   class="BoundingBox"
   stroke="none"
   fill="none"
   x="13300"
   y="12452"
   width="6498"
   height="5224"
   id="rect93" />
        <path
   fill="#ffffff"
   stroke="none"
   d="m 13829,17146 c 129,-377 295,-743 496,-1091 142,-246 300,-480 473,-702 150,589 262,1188 333,1793 z m 1782,-2168 c -35,-130 -71,-260 -110,-388 330,-303 693,-570 1084,-795 469,-271 970,-478 1489,-617 390,-104 790,-170 1194,-197 v 1769 c -250,23 -496,67 -737,132 -371,99 -729,247 -1064,441 -335,193 -642,429 -913,700 -219,220 -416,462 -585,723 -83,-596 -202,-1187 -358,-1768 z"
   id="path95" />
        <path
   fill="none"
   stroke="#000000"
   stroke-width="1058"
   stroke-linejoin="round"
   d="m 13829,17146 c 129,-377 295,-743 496,-1091 142,-246 300,-480 473,-702 150,589 262,1188 333,1793 z"
   id="path97" />
        <path
   fill="none"
   stroke="#000000"
   stroke-width="1058"
   stroke-linejoin="round"
   d="m 15611,14978 c -35,-130 -71,-260 -110,-388 330,-303 693,-570 1084,-795 469,-271 970,-478 1489,-617 390,-104 790,-170 1194,-197 v 1769 c -250,23 -496,67 -737,132 -371,99 -729,247 -1064,441 -335,193 -642,429 -913,700 -219,220 -416,462 -585,723 -83,-596 -202,-1187 -358,-1768 z"
   id="path99" />
       </g>
      </g>
      <g
   class="com.sun.star.drawing.CustomShape"
   id="g111">
       <g
   id="id8">
        <rect
   class="BoundingBox"
   stroke="none"
   fill="none"
   x="5046"
   y="18104"
   width="2823"
   height="6527"
   id="rect104" />
        <path
   fill="#ffffff"
   stroke="none"
   d="m 6457,24101 h -882 v -5468 h 1764 v 5468 z"
   id="path106" />
        <path
   fill="none"
   stroke="#000000"
   stroke-width="1058"
   stroke-linejoin="round"
   d="m 6457,24101 h -882 v -5468 h 1764 v 5468 z"
   id="path108" />
       </g>
      </g>
      <g
   class="com.sun.star.drawing.CustomShape"
   id="g120">
       <g
   id="id9">
        <rect
   class="BoundingBox"
   stroke="none"
   fill="none"
   x="12983"
   y="18104"
   width="2823"
   height="6527"
   id="rect113" />
        <path
   fill="#ffffff"
   stroke="none"
   d="m 14394,24101 h -882 v -5468 h 1764 v 5468 z"
   id="path115" />
        <path
   fill="none"
   stroke="#000000"
   stroke-width="1058"
   stroke-linejoin="round"
   d="m 14394,24101 h -882 v -5468 h 1764 v 5468 z"
   id="path117" />
       </g>
      </g>
      <g
   class="com.sun.star.drawing.CustomShape"
   id="g127">
       <g
   id="id10">
        <rect
   class="BoundingBox"
   stroke="none"
   fill="none"
   x="6985"
   y="19367"
   width="7621"
   height="1765"
   id="rect122" />
        <path
   fill="#ffffff"
   stroke="none"
   d="M 10795,21131 H 6985 v -1764 h 7620 v 1764 z"
   id="path124" />
       </g>
      </g>
      <g
   class="com.sun.star.drawing.ClosedBezierShape"
   id="g134">
       <g
   id="id11">
        <rect
   class="BoundingBox"
   stroke="none"
   fill="none"
   x="2222"
   y="13057"
   width="5112"
   height="5703"
   id="rect129" />
        <path
   fill="#ffffff"
   stroke="none"
   d="m 5564,18758 c -22,-257 -67,-511 -133,-759 -100,-370 -247,-728 -441,-1063 -193,-335 -429,-642 -701,-913 -271,-272 -578,-508 -913,-701 -335,-194 -693,-342 -1064,-441 -30,-8 -60,-16 -90,-23 v -1801 c 184,32 367,72 547,120 519,139 1020,346 1489,617 469,271 899,601 1279,981 380,380 710,810 981,1279 271,469 478,970 617,1489 106,396 173,803 198,1215 z"
   id="path131" />
       </g>
      </g>
      <g
   class="com.sun.star.drawing.ClosedBezierShape"
   id="g141">
       <g
   id="id12">
        <rect
   class="BoundingBox"
   stroke="none"
   fill="none"
   x="2222"
   y="4888"
   width="13061"
   height="13871"
   id="rect136" />
        <path
   fill="#ffffff"
   stroke="none"
   d="m 13517,18758 c -16,-1015 -158,-2020 -419,-2993 -278,-1038 -691,-2040 -1233,-2978 -542,-939 -1203,-1798 -1962,-2558 C 9143,9470 8284,8809 7345,8267 6407,7725 5405,7312 4367,7034 3666,6846 2948,6720 2222,6658 V 4888 c 881,66 1752,214 2602,442 1186,317 2331,790 3403,1409 1073,620 2055,1375 2923,2243 868,868 1623,1850 2242,2923 620,1072 1092,2217 1410,3403 301,1121 463,2280 480,3450 z"
   id="path138" />
       </g>
      </g>
      <g
   class="com.sun.star.drawing.ClosedBezierShape"
   id="g148">
       <g
   id="id13">
        <rect
   class="BoundingBox"
   stroke="none"
   fill="none"
   x="5561"
   y="4853"
   width="13807"
   height="13906"
   id="rect143" />
        <path
   fill="#ffffff"
   stroke="none"
   d="m 11843,8454 c -241,-241 -491,-474 -749,-698 483,-370 992,-709 1522,-1016 1073,-619 2218,-1092 3404,-1409 1088,-292 2212,-453 3347,-478 v 1764 c -980,25 -1951,165 -2891,417 -1038,278 -2039,692 -2978,1234 -391,226 -769,472 -1131,738 -170,-188 -344,-373 -524,-552 z m -623,624 c 155,155 306,314 454,476 -254,216 -498,441 -733,676 -169,169 -334,344 -493,522 -117,-127 -237,-252 -359,-375 -294,-294 -603,-572 -926,-834 172,-191 349,-378 531,-560 228,-228 463,-448 707,-660 283,240 556,492 819,755 z m -1755,1923 c 143,142 281,288 415,438 -328,428 -630,878 -901,1348 -542,939 -956,1941 -1234,2978 -46,172 -88,345 -127,519 -99,-229 -211,-452 -337,-669 -265,-459 -583,-883 -947,-1263 293,-846 666,-1665 1117,-2447 341,-591 724,-1154 1144,-1687 304,246 595,507 870,783 z m -2948,5055 c 252,436 444,901 573,1383 115,429 180,872 193,1319 H 5562 c 17,-1157 176,-2303 470,-3413 179,223 341,461 485,711 z"
   id="path145" />
       </g>
      </g>
      <g
   class="com.sun.star.drawing.ClosedBezierShape"
   id="g155">
       <g
   id="id14">
        <rect
   class="BoundingBox"
   stroke="none"
   fill="none"
   x="13828"
   y="12980"
   width="5440"
   height="4166"
   id="rect150" />
        <path
   fill="#ffffff"
   stroke="none"
   d="m 13828,17145 c 129,-377 295,-743 496,-1091 142,-246 300,-480 473,-702 150,589 262,1188 333,1793 z m 1782,-2168 c -35,-130 -71,-260 -110,-388 330,-303 693,-570 1084,-795 469,-271 970,-478 1489,-617 390,-104 790,-170 1194,-197 v 1769 c -250,23 -496,67 -737,132 -371,99 -729,247 -1064,441 -335,193 -642,429 -913,700 -219,220 -416,462 -585,723 -83,-596 -202,-1187 -358,-1768 z"
   id="path152" />
       </g>
      </g>
      <g
   class="com.sun.star.drawing.CustomShape"
   id="g162">
       <g
   id="id15">
        <rect
   class="BoundingBox"
   stroke="none"
   fill="none"
   x="5574"
   y="18632"
   width="1765"
   height="5469"
   id="rect157" />
        <path
   fill="#ffffff"
   stroke="none"
   d="m 6456,24100 h -882 v -5468 h 1764 v 5468 z"
   id="path159" />
       </g>
      </g>
      <g
   class="com.sun.star.drawing.CustomShape"
   id="g169">
       <g
   id="id16">
        <rect
   class="BoundingBox"
   stroke="none"
   fill="none"
   x="13511"
   y="18632"
   width="1765"
   height="5469"
   id="rect164" />
        <path
   fill="#ffffff"
   stroke="none"
   d="m 14393,24100 h -882 v -5468 h 1764 v 5468 z"
   id="path166" />
       </g>
      </g>
     </g>
    </g>
   </g>
  </g>
 </g>
</svg>
